<?xml version="1.0" standalone="no"?>
<!DOCTYPE svg PUBLIC "-//W3C//DTD SVG 20010904//EN"
 "http://www.w3.org/TR/2001/REC-SVG-20010904/DTD/svg10.dtd">
<svg version="1.0" xmlns="http://www.w3.org/2000/svg"
 width="1255.000000pt" height="1280.000000pt" viewBox="0 0 1255.000000 1280.000000"
 preserveAspectRatio="xMidYMid meet">
<metadata>
Created by potrace 1.15, written by Peter Selinger 2001-2017
</metadata>
<g transform="translate(0.000000,1280.000000) scale(0.100000,-0.100000)"
fill="#BFCBC2" stroke="none">
<path d="M3095 12789 c-641 -61 -1379 -366 -1980 -818 -165 -124 -272 -217
-425 -370 -359 -359 -577 -714 -665 -1081 -19 -80 -33 -320 -18 -320 9 0 4110
2364 4122 2376 13 12 -170 110 -269 144 -201 68 -495 94 -765 69z"/>
<path d="M3973 12159 c-79 -13 -152 -46 -328 -149 -183 -107 -230 -142 -290
-219 -57 -75 -82 -128 -106 -218 -31 -124 -23 -245 24 -362 13 -32 750 -1318
1638 -2857 l1614 -2799 80 -80 c90 -90 166 -134 281 -161 89 -21 234 -14 319
15 100 35 410 218 475 281 197 190 241 473 111 715 -110 203 -3219 5578 -3252
5621 -127 166 -349 249 -566 213z"/>
<path d="M2550 11319 c-96 -10 -161 -36 -320 -127 -207 -118 -230 -133 -288
-191 -61 -61 -113 -144 -143 -231 -19 -54 -23 -85 -23 -185 -1 -104 3 -129 25
-190 15 -42 463 -828 1128 -1980 607 -1050 1338 -2317 1624 -2814 478 -829
527 -910 588 -971 64 -64 159 -123 241 -149 104 -34 261 -30 374 9 83 29 396
214 459 272 73 66 130 156 162 253 36 110 36 247 1 355 -19 57 -402 729 -1638
2870 -887 1537 -1625 2813 -1641 2836 -36 52 -124 134 -184 168 -101 60 -241
88 -365 75z"/>
<path d="M1016 10464 c-123 -30 -432 -209 -532 -308 -177 -176 -224 -435 -120
-661 13 -27 679 -1186 1481 -2575 801 -1389 1527 -2646 1613 -2795 136 -236
165 -279 227 -341 175 -174 431 -221 653 -119 66 30 264 144 343 196 118 79
219 222 250 354 16 72 15 210 -4 282 -22 84 -28 96 -326 611 -576 997 -2518
4361 -2714 4702 -116 201 -230 393 -254 427 -133 190 -386 283 -617 227z"/>
<path d="M8160 5553 c-37 -14 -384 -190 -551 -281 -1142 -618 -3185 -1817
-3509 -2059 -36 -27 -65 -56 -65 -66 0 -33 276 -221 930 -634 1453 -917 3315
-2017 3352 -1980 16 17 23 248 23 880 1 1308 -59 3357 -115 3962 -18 190 -19
195 -65 178z"/>
<path d="M12150 469 c-77 -8 -89 -12 -159 -58 -51 -34 -59 -36 -135 -35 -45 0
-175 6 -291 13 -223 13 -375 6 -487 -24 -31 -8 -134 -46 -229 -85 -94 -38
-175 -70 -180 -70 -5 0 -29 23 -55 50 -64 68 -152 110 -248 117 -121 9 -226
-31 -391 -152 -99 -72 -190 -121 -240 -131 -46 -8 -157 45 -319 154 -284 191
-294 194 -656 200 -245 3 -290 2 -415 -18 -231 -35 -228 -38 46 -39 355 -1
400 -14 645 -177 151 -101 251 -153 354 -186 70 -22 91 -23 330 -23 316 0 363
10 519 108 43 27 68 37 76 31 70 -52 54 -49 295 -48 221 1 227 1 326 31 55 17
177 62 271 101 94 39 188 75 209 79 22 5 206 4 410 -1 417 -10 436 -7 529 59
l50 35 -129 0 c-71 0 -127 2 -125 4 3 3 79 15 169 28 155 21 162 23 110 29
-96 12 -213 15 -280 8z"/>
</g>
</svg>
